<svg id="Icons" height="512" viewBox="0 0 74 74" width="512" xmlns="http://www.w3.org/2000/svg"><path d="m37 66.05a29.05 29.05 0 1 1 29.05-29.05 29.08 29.08 0 0 1 -29.05 29.05zm0-56.05a27.05 27.05 0 1 0 27.05 27 27.07 27.07 0 0 0 -27.05-27z"/><path d="m4 37h-2a35 35 0 0 1 35-35v2a33 33 0 0 0 -33 33z"/><path d="m72 37h-2a33 33 0 0 0 -33-33v-2a35 35 0 0 1 35 35z"/><path d="m37 72v-2a33 33 0 0 0 33-33h2a35 35 0 0 1 -35 35z"/><path d="m37 72a35 35 0 0 1 -35-35h2a33 33 0 0 0 33 33z"/><path d="m35.7 8.97h2v5.31h-2z"/><path d="m46.78 13.88h5.31v2h-5.31z" transform="matrix(.5 -.866 .866 .5 11.83 50.26)"/><path d="m21.4 57.84h5.31v2h-5.31z" transform="matrix(.5 -.866 .866 .5 -38.93 50.26)"/><path d="m56.18 23.07h5.31v2h-5.31z" transform="matrix(.866 -.5 .5 .866 -4.15 32.64)"/><path d="m12.22 48.45h5.31v2h-5.31z" transform="matrix(.866 -.5 .5 .866 -22.73 14.06)"/><path d="m59.72 35.73h5.31v2h-5.31z"/><path d="m8.97 35.73h5.31v2h-5.31z"/><path d="m58.12 46.81h2v5.31h-2z" transform="matrix(.5 -.866 .866 .5 -13.28 75.93)"/><path d="m14.16 21.43h2v5.31h-2z" transform="matrix(.5 -.866 .866 .5 -13.28 25.17)"/><path d="m48.93 56.21h2v5.31h-2z" transform="matrix(.866 -.5 .5 .866 -22.74 32.85)"/><path d="m23.55 12.25h2v5.31h-2z" transform="matrix(.866 -.5 .5 .866 -4.16 14.27)"/><path d="m37 42.24a5.24 5.24 0 1 1 5.23-5.24 5.25 5.25 0 0 1 -5.23 5.24zm0-8.47a3.24 3.24 0 1 0 3.23 3.23 3.24 3.24 0 0 0 -3.23-3.23z"/><path d="m21.68 42.84h13.48v2h-13.48z" transform="matrix(.771 -.637 .637 .771 -21.42 28.15)"/><path d="m32.72 20.84h2v12.47h-2z" transform="matrix(.963 -.268 .268 .963 -6.02 10.01)"/><path d="m36 58.84h2v6.21h-2z"/></svg>