<svg id="Capa_1" enable-background="new 0 0 512 512" height="512" viewBox="0 0 512 512" width="512" xmlns="http://www.w3.org/2000/svg"><g><path d="m481.542 155.422c-3.359-25.733-25.408-45.672-52.042-45.672h-142.5v-52.5c0-4.142-3.357-7.5-7.5-7.5h-272c-4.142 0-7.5 3.358-7.5 7.5v330c0 4.142 3.358 7.5 7.5 7.5h22.876c3.775 37.846 35.8 67.5 74.624 67.5s70.849-29.654 74.624-67.5h122.752c3.775 37.846 35.8 67.5 74.624 67.5s70.849-29.654 74.624-67.5h52.876c4.143 0 7.5-3.358 7.5-7.5v-195c0-18.27-13.136-33.522-30.458-36.828zm-52.042-30.672c18.11 0 33.261 12.904 36.745 30h-126.745c-4.143 0-7.5 3.358-7.5 7.5s3.357 7.5 7.5 7.5h135c9.777 0 18.114 6.271 21.21 15h-21.21c-4.143 0-7.5 3.358-7.5 7.5v97.5c0 4.142 3.357 7.5 7.5 7.5h22.5v52.5h-55.09c-12.988-22.395-37.21-37.5-64.91-37.5-38.824 0-70.849 29.654-74.624 67.5h-15.376v-210h22.5c4.143 0 7.5-3.358 7.5-7.5s-3.357-7.5-7.5-7.5h-22.5v-30zm67.5 75v82.5h-15v-82.5zm-225 150h-102.09c-12.989-22.395-37.211-37.5-64.91-37.5s-51.921 15.105-64.91 37.5h-25.09v-52.5h257zm-95.453 15h95.453v15h-92.376c-.516-5.172-1.561-10.189-3.077-15zm95.453-300v217.5h-257v-217.5zm-257 300h18.453c-1.516 4.811-2.561 9.828-3.077 15h-15.376zm90 82.5c-33.084 0-60-26.916-60-60s26.916-60 60-60 60 26.916 60 60-26.916 60-60 60zm272 0c-33.084 0-60-26.916-60-60s26.916-60 60-60 60 26.916 60 60-26.916 60-60 60zm74.624-67.5c-.516-5.172-1.561-10.189-3.077-15h48.453v15z"/><path d="m369.5 297.25h75c4.143 0 7.5-3.358 7.5-7.5v-97.5c0-4.142-3.357-7.5-7.5-7.5h-105c-4.143 0-7.5 3.358-7.5 7.5v67.5c0 20.678 16.822 37.5 37.5 37.5zm-22.5-97.5h90v82.5h-67.5c-12.406 0-22.5-10.093-22.5-22.5z"/><path d="m377 342.25c-24.813 0-45 20.187-45 45s20.187 45 45 45 45-20.187 45-45-20.187-45-45-45zm0 75c-16.542 0-30-13.458-30-30s13.458-30 30-30 30 13.458 30 30-13.458 30-30 30z"/><path d="m105 342.25c-24.813 0-45 20.187-45 45s20.187 45 45 45 45-20.187 45-45-20.187-45-45-45zm0 75c-16.542 0-30-13.458-30-30s13.458-30 30-30 30 13.458 30 30-13.458 30-30 30z"/></g></svg>