<svg xmlns="http://www.w3.org/2000/svg" xmlns:xlink="http://www.w3.org/1999/xlink" version="1.1" x="0px" y="0px" viewBox="0 0 100 125" style="enable-background:new 0 0 100 100;" xml:space="preserve"><path d="M88.5673828,55.1816406c0.1396484,0.0668945,0.2871094,0.0986328,0.4316406,0.0986328  c0.3730469,0,0.7304688-0.2089844,0.9023438-0.5668945c0.2392578-0.4980469,0.0292969-1.0952148-0.46875-1.3344727  c-0.4550781-0.21875-0.9140625-0.4335938-1.3740234-0.644043c-0.5039062-0.230957-1.0957031-0.0083008-1.3251953,0.4926758  c-0.2294922,0.5019531-0.0097656,1.0957031,0.4931641,1.3256836C87.6748047,54.7587891,88.1220703,54.9677734,88.5673828,55.1816406  z"/><path d="M18.2265625,50.1679688c-0.9130859,0.3300781-1.8183594,0.675293-2.7148438,1.0351562  c-0.5126953,0.2060547-0.7617188,0.7880859-0.5556641,1.3007812c0.15625,0.390625,0.53125,0.6279297,0.9277344,0.6279297  c0.1240234,0,0.25-0.0234375,0.3720703-0.0722656c0.8769531-0.3520508,1.7607422-0.6884766,2.6503906-1.0107422  c0.5195312-0.1879883,0.7880859-0.7612305,0.6005859-1.2807617C19.3193359,50.2490234,18.7451172,49.980957,18.2265625,50.1679688z"/><path d="M24.6826172,48.1123047c-0.9345703,0.2583008-1.8632812,0.5317383-2.7861328,0.8198242  c-0.5263672,0.1650391-0.8203125,0.7260742-0.6552734,1.2529297C21.375,50.612793,21.7695312,50.887207,22.1953125,50.887207  c0.0986328,0,0.1992188-0.0151367,0.2988281-0.0458984c0.9013672-0.2822266,1.8085938-0.5488281,2.7216797-0.8012695  c0.5322266-0.1469727,0.8447266-0.6977539,0.6972656-1.2304688C25.7666016,48.2773438,25.2109375,47.9692383,24.6826172,48.1123047z  "/><path d="M84.4970703,51.2070312c-0.8964844-0.3598633-1.8007812-0.7055664-2.7119141-1.0356445  c-0.5166016-0.1865234-1.0927734,0.0805664-1.28125,0.5996094c-0.1875,0.5195312,0.0810547,1.0927734,0.5996094,1.28125  c0.8896484,0.3222656,1.7724609,0.6591797,2.6494141,1.0112305C83.875,53.1123047,84.0009766,53.1357422,84.125,53.1357422  c0.3964844,0,0.7714844-0.237793,0.9277344-0.6279297C85.2587891,51.9951172,85.0097656,51.4130859,84.4970703,51.2070312z"/><path d="M27.6845703,48.3598633c0.1074219,0.4624023,0.5185547,0.7749023,0.9736328,0.7749023  c0.0742188,0,0.1503906-0.0083008,0.2265625-0.0258789c0.9208984-0.2128906,1.8466797-0.4116211,2.7753906-0.5961914  c0.5419922-0.1074219,0.8945312-0.6337891,0.7861328-1.1757812c-0.1064453-0.5419922-0.6357422-0.8945312-1.1748047-0.7861328  c-0.9501953,0.1884766-1.8955078,0.3920898-2.8378906,0.6098633C27.8955078,47.284668,27.5605469,47.8217773,27.6845703,48.3598633z  "/><path d="M54.2714844,45.8071289c-0.0302734,0.5517578,0.3925781,1.0229492,0.9443359,1.0527344  c0.9443359,0.0512695,1.8896484,0.1166992,2.8330078,0.1967773c0.0283203,0.0024414,0.0566406,0.003418,0.0849609,0.003418  c0.5146484,0,0.9511719-0.394043,0.9951172-0.9160156c0.046875-0.550293-0.3613281-1.0336914-0.9121094-1.0805664  c-0.9628906-0.0810547-1.9277344-0.1484375-2.8935547-0.2006836C54.8134766,44.8295898,54.3007812,45.2558594,54.2714844,45.8071289  z"/><path d="M34.2470703,47.0185547C34.3242188,47.512207,34.75,47.8642578,35.234375,47.8642578  c0.0507812,0,0.1035156-0.0039062,0.1552734-0.012207c0.9335938-0.1455078,1.8720703-0.2773438,2.8115234-0.3955078  c0.5488281-0.0688477,0.9365234-0.5688477,0.8681641-1.1166992s-0.5654297-0.9350586-1.1162109-0.8676758  c-0.9609375,0.1201172-1.9189453,0.2548828-2.8720703,0.4042969C34.5351562,45.9614258,34.1621094,46.4731445,34.2470703,47.0185547  z"/><path d="M67.5693359,47.3344727c-0.1083984,0.5419922,0.2441406,1.0683594,0.7861328,1.1757812  c0.9287109,0.1845703,1.8535156,0.3837891,2.7744141,0.597168c0.0761719,0.0175781,0.1513672,0.0258789,0.2265625,0.0258789  c0.4550781,0,0.8662109-0.3120117,0.9736328-0.7739258c0.1240234-0.5380859-0.2109375-1.0756836-0.7490234-1.2001953  c-0.9404297-0.2182617-1.8867188-0.4223633-2.8369141-0.6108398C68.2050781,46.4394531,67.6757812,46.7929688,67.5693359,47.3344727  z"/><path d="M48.5585938,44.730957c-0.5527344,0.0083008-0.9931641,0.4624023-0.9853516,1.0146484  c0.0078125,0.5473633,0.4541016,0.9853516,1,0.9853516c0.0048828,0,0.0097656,0,0.0146484,0  c0.4902344-0.0073242,0.9804688-0.0112305,1.4716797-0.0112305c0.4394531-0.0048828,0.9121094,0.0029297,1.3701172,0.0097656  c0.5322266-0.0209961,1.0068359-0.4331055,1.0146484-0.9853516s-0.4326172-1.0063477-0.9853516-1.0146484  c-0.4375-0.0063477-0.8759766-0.0097656-1.3134766-0.0097656C49.6298828,44.7226562,49.0878906,44.7231445,48.5585938,44.730957z"/><path d="M61.8154297,47.4511719c0.9394531,0.1176758,1.8769531,0.25,2.8115234,0.3959961  c0.0517578,0.0083008,0.1044922,0.012207,0.1552734,0.012207c0.484375,0,0.9101562-0.3520508,0.9873047-0.8452148  c0.0849609-0.5454102-0.2880859-1.0571289-0.8330078-1.1425781c-0.9550781-0.1499023-1.9121094-0.2841797-2.8730469-0.4047852  c-0.5507812-0.0683594-1.0478516,0.3203125-1.1162109,0.8676758C60.8789062,46.8823242,61.2666016,47.3823242,61.8154297,47.4511719  z"/><path d="M41.8007812,45.0678711c-0.5498047,0.046875-0.9580078,0.53125-0.9111328,1.081543  c0.0439453,0.5214844,0.4814453,0.9150391,0.9951172,0.9150391c0.0283203,0,0.0566406-0.0009766,0.0859375-0.003418  c0.9423828-0.0805664,1.8867188-0.1459961,2.8330078-0.1977539c0.5517578-0.0302734,0.9736328-0.5014648,0.9433594-1.0532227  c-0.0292969-0.5512695-0.5029297-0.9824219-1.0527344-0.9438477C43.7285156,44.9189453,42.7626953,44.9863281,41.8007812,45.0678711  z"/><path d="M74.1015625,48.8095703c-0.1474609,0.5322266,0.1640625,1.0834961,0.6962891,1.230957  c0.9121094,0.253418,1.8193359,0.5205078,2.7207031,0.8027344c0.0996094,0.0307617,0.2001953,0.0458984,0.2988281,0.0458984  c0.4257812,0,0.8203125-0.2744141,0.9541016-0.7021484c0.1650391-0.5268555-0.1289062-1.0878906-0.6552734-1.2529297  c-0.9228516-0.2880859-1.8515625-0.5620117-2.7832031-0.8203125C74.7998047,47.9663086,74.25,48.2773438,74.1015625,48.8095703z"/><path d="M11.9414062,52.7348633c-0.4599609,0.2104492-0.9189453,0.425293-1.3740234,0.644043  c-0.4980469,0.2392578-0.7080078,0.8364258-0.46875,1.3344727c0.171875,0.3579102,0.5292969,0.5668945,0.9023438,0.5668945  c0.1445312,0,0.2919922-0.0317383,0.4316406-0.0986328c0.4453125-0.2138672,0.8925781-0.4228516,1.3408203-0.628418  c0.5029297-0.2299805,0.7226562-0.8237305,0.4931641-1.3256836C13.0371094,52.7260742,12.4453125,52.5029297,11.9414062,52.7348633z  "/></svg>