<svg id="Layer_1" enable-background="new 0 0 505.608 505.608" height="512" viewBox="0 0 505.608 505.608" width="512" xmlns="http://www.w3.org/2000/svg"><g><path d="m491.671 25.198-2.104-9.158-9.158-2.104c-2.671-.613-66.344-15.011-144.582-13.873-85.547 1.244-177.776 21.118-234.406 86.105-78.012 89.521-86.322 218.425-9.537 306.343l-91.884 91.884 21.213 21.213 91.882-91.882c88.006 76.861 216.919 68.389 306.344-9.539 64.598-56.292 84.848-147.969 86.104-234.406 1.138-78.274-13.259-141.912-13.872-144.583zm-91.941 356.372c-80.293 69.969-191.716 73.65-265.361 10.883l39.456-39.456h142.279v-30h-112.279l33.64-33.64h99.853v-30h-69.853l33.64-33.64h57.427v-30h-27.427l38.033-38.033-21.213-21.213-38.033 38.033v-27.427h-30v57.427l-33.64 33.64v-69.853h-30v99.853l-33.64 33.64v-112.28h-30v142.279l-39.456 39.457c-62.769-73.647-59.087-185.07 10.883-265.362 51.812-59.458 141.968-75.876 220.451-75.876 54.114 0 100.652 7.619 119.838 11.27 8.706 45.985 40.035 249.116-64.598 340.298z"/></g></svg>