<?xml version="1.0" encoding="iso-8859-1"?>
<!-- Generator: Adobe Illustrator 19.0.0, SVG Export Plug-In . SVG Version: 6.00 Build 0)  -->
<svg version="1.1" id="Layer_1" xmlns="http://www.w3.org/2000/svg" xmlns:xlink="http://www.w3.org/1999/xlink" x="0px" y="0px"
	 viewBox="0 0 512 512" style="enable-background:new 0 0 512 512;" xml:space="preserve">
<g>
	<g>
		<path d="M375.669,189.7l23.808-45.314c15.949-30.358,14.841-67.45-2.894-96.801C378.847,18.234,346.528,0,312.235,0h-112.47
			c-34.293,0-66.614,18.234-84.349,47.584c-17.734,29.351-18.843,66.443-2.894,96.801L136.33,189.7
			c-50.477,36.965-83.324,96.643-83.324,163.86c0,49.59,18.083,97.34,50.92,134.449C117.417,503.256,136.839,512,157.208,512
			h197.583c20.371,0,39.791-8.744,53.282-23.991c32.836-37.11,50.92-84.858,50.92-134.449
			C458.993,286.343,426.145,226.664,375.669,189.7z M143.986,64.847c11.728-19.411,33.102-31.468,55.779-31.468h112.469
			c22.677,0,44.052,12.057,55.78,31.468c11.728,19.411,12.461,43.94,1.914,64.016l-22.747,43.295
			c-10.708-5.401-21.827-9.814-33.291-13.216l20.658-39.319c5.591-10.644,5.203-23.65-1.016-33.94
			c-6.218-10.292-17.55-16.685-29.576-16.685h-95.917c-12.024,0-23.357,6.393-29.576,16.685
			c-6.217,10.292-6.607,23.296-1.015,33.942l20.658,39.318c-11.464,3.402-22.584,7.816-33.291,13.216l-22.747-43.295
			C131.525,108.785,132.258,84.256,143.986,64.847z M305.001,104.099l-25.154,47.876c-7.824-0.92-15.778-1.407-23.844-1.407
			c-8.068,0-16.022,0.488-23.846,1.407L207.001,104.1c-0.19-0.363-0.178-0.807,0.035-1.157c0.211-0.35,0.597-0.567,1.007-0.567
			h95.917c0.409,0,0.794,0.217,1.007,0.567C305.178,103.293,305.191,103.737,305.001,104.099z M383.075,465.89
			c-7.16,8.091-17.468,12.732-28.284,12.732H157.209c-10.816,0-21.125-4.641-28.284-12.732
			c-27.432-31.002-42.539-70.895-42.539-112.33c0-93.526,76.089-169.614,169.614-169.614s169.614,76.089,169.614,169.614
			C425.614,394.995,410.507,434.888,383.075,465.89z"/>
	</g>
</g>
<g>
</g>
<g>
</g>
<g>
</g>
<g>
</g>
<g>
</g>
<g>
</g>
<g>
</g>
<g>
</g>
<g>
</g>
<g>
</g>
<g>
</g>
<g>
</g>
<g>
</g>
<g>
</g>
<g>
</g>
</svg>
